<?xml version="1.0" encoding="us-ascii" standalone="no"?><svg xmlns="http://www.w3.org/2000/svg" xmlns:xlink="http://www.w3.org/1999/xlink" contentStyleType="text/css" height="501px" preserveAspectRatio="none" style="width:1253px;height:501px;background:#FFFFFF;" version="1.1" viewBox="0 0 1253 501" width="1253px" zoomAndPan="magnify"><defs/><g><!--class Maflow_Spain--><g id="elem_Maflow_Spain"><rect codeLine="4" fill="#F1F1F1" height="149.9063" id="Maflow_Spain" rx="2.5" ry="2.5" style="stroke:#181818;stroke-width:0.5;" width="156" x="525.5" y="7"/><text fill="#000000" font-family="sans-serif" font-size="14" lengthAdjust="spacing" textLength="94" x="556.5" y="25.5352">Maflow_Spain</text><line style="stroke:#181818;stroke-width:0.5;" x1="526.5" x2="680.5" y1="33.4883" y2="33.4883"/><ellipse cx="536.5" cy="47.2324" fill="none" rx="3" ry="3" style="stroke:#038048;stroke-width:1.0;"/><text fill="#000000" font-family="sans-serif" font-size="14" lengthAdjust="spacing" textLength="124" x="545.5" y="51.0234">Direcci&#243;n_General</text><ellipse cx="536.5" cy="63.7207" fill="none" rx="3" ry="3" style="stroke:#038048;stroke-width:1.0;"/><text fill="#000000" font-family="sans-serif" font-size="14" lengthAdjust="spacing" textLength="130" x="545.5" y="67.5117">Gesti&#243;n_Financiera</text><ellipse cx="536.5" cy="80.209" fill="none" rx="3" ry="3" style="stroke:#038048;stroke-width:1.0;"/><text fill="#000000" font-family="sans-serif" font-size="14" lengthAdjust="spacing" textLength="38" x="545.5" y="84">RRHH</text><ellipse cx="536.5" cy="96.6973" fill="none" rx="3" ry="3" style="stroke:#038048;stroke-width:1.0;"/><text fill="#000000" font-family="sans-serif" font-size="14" lengthAdjust="spacing" textLength="69" x="545.5" y="100.4883">Marketing</text><ellipse cx="536.5" cy="113.1855" fill="none" rx="3" ry="3" style="stroke:#038048;stroke-width:1.0;"/><text fill="#000000" font-family="sans-serif" font-size="14" lengthAdjust="spacing" textLength="69" x="545.5" y="116.9766">Ingenier&#237;a</text><ellipse cx="536.5" cy="129.6738" fill="none" rx="3" ry="3" style="stroke:#038048;stroke-width:1.0;"/><text fill="#000000" font-family="sans-serif" font-size="14" lengthAdjust="spacing" textLength="60" x="545.5" y="133.4648">Log&#237;stica</text><ellipse cx="536.5" cy="146.1621" fill="none" rx="3" ry="3" style="stroke:#038048;stroke-width:1.0;"/><text fill="#000000" font-family="sans-serif" font-size="14" lengthAdjust="spacing" textLength="52" x="545.5" y="149.9531">Calidad</text></g><!--class Division_Automotive--><g id="elem_Division_Automotive"><rect codeLine="15" fill="#F1F1F1" height="116.9297" id="Division_Automotive" rx="2.5" ry="2.5" style="stroke:#181818;stroke-width:0.5;" width="220" x="168.5" y="216.91"/><text fill="#000000" font-family="sans-serif" font-size="14" lengthAdjust="spacing" textLength="140" x="208.5" y="235.4452">Division_Automotive</text><line style="stroke:#181818;stroke-width:0.5;" x1="169.5" x2="387.5" y1="243.3983" y2="243.3983"/><ellipse cx="179.5" cy="257.1424" fill="none" rx="3" ry="3" style="stroke:#038048;stroke-width:1.0;"/><text fill="#000000" font-family="sans-serif" font-size="14" lengthAdjust="spacing" textLength="70" x="188.5" y="260.9334">Tubos_AC</text><ellipse cx="179.5" cy="273.6307" fill="none" rx="3" ry="3" style="stroke:#038048;stroke-width:1.0;"/><text fill="#000000" font-family="sans-serif" font-size="14" lengthAdjust="spacing" textLength="142" x="188.5" y="277.4217">Tubos_Refrigeraci&#243;n</text><ellipse cx="179.5" cy="290.119" fill="none" rx="3" ry="3" style="stroke:#038048;stroke-width:1.0;"/><text fill="#000000" font-family="sans-serif" font-size="14" lengthAdjust="spacing" textLength="165" x="188.5" y="293.91">Componentes_Aluminio</text><ellipse cx="179.5" cy="306.6073" fill="none" rx="3" ry="3" style="stroke:#038048;stroke-width:1.0;"/><text fill="#000000" font-family="sans-serif" font-size="14" lengthAdjust="spacing" textLength="194" x="188.5" y="310.3983">Control_Calidad_IATF16949</text><ellipse cx="179.5" cy="323.0955" fill="none" rx="3" ry="3" style="stroke:#038048;stroke-width:1.0;"/><text fill="#000000" font-family="sans-serif" font-size="14" lengthAdjust="spacing" textLength="101" x="188.5" y="326.8866">Producci&#243;n_JIT</text></g><!--class Division_Borygo--><g id="elem_Division_Borygo"><rect codeLine="23" fill="#F1F1F1" height="116.9297" id="Division_Borygo" rx="2.5" ry="2.5" style="stroke:#181818;stroke-width:0.5;" width="201" x="503" y="216.91"/><text fill="#000000" font-family="sans-serif" font-size="14" lengthAdjust="spacing" textLength="109" x="549" y="235.4452">Division_Borygo</text><line style="stroke:#181818;stroke-width:0.5;" x1="504" x2="703" y1="243.3983" y2="243.3983"/><ellipse cx="514" cy="257.1424" fill="none" rx="3" ry="3" style="stroke:#038048;stroke-width:1.0;"/><text fill="#000000" font-family="sans-serif" font-size="14" lengthAdjust="spacing" textLength="157" x="523" y="260.9334">L&#237;quidos_Refrigerantes</text><ellipse cx="514" cy="273.6307" fill="none" rx="3" ry="3" style="stroke:#038048;stroke-width:1.0;"/><text fill="#000000" font-family="sans-serif" font-size="14" lengthAdjust="spacing" textLength="117" x="523" y="277.4217">Limpiaparabrisas</text><ellipse cx="514" cy="290.119" fill="none" rx="3" ry="3" style="stroke:#038048;stroke-width:1.0;"/><text fill="#000000" font-family="sans-serif" font-size="14" lengthAdjust="spacing" textLength="137" x="523" y="293.91">Productos_Detailing</text><ellipse cx="514" cy="306.6073" fill="none" rx="3" ry="3" style="stroke:#038048;stroke-width:1.0;"/><text fill="#000000" font-family="sans-serif" font-size="14" lengthAdjust="spacing" textLength="175" x="523" y="310.3983">Control_Calidad_Qu&#237;mico</text><ellipse cx="514" cy="323.0955" fill="none" rx="3" ry="3" style="stroke:#038048;stroke-width:1.0;"/><text fill="#000000" font-family="sans-serif" font-size="14" lengthAdjust="spacing" textLength="128" x="523" y="326.8866">Distribuci&#243;n_Retail</text></g><!--class Division_Maflow3D--><g id="elem_Division_Maflow3D"><rect codeLine="31" fill="#F1F1F1" height="116.9297" id="Division_Maflow3D" rx="2.5" ry="2.5" style="stroke:#181818;stroke-width:0.5;" width="205" x="818" y="216.91"/><text fill="#000000" font-family="sans-serif" font-size="14" lengthAdjust="spacing" textLength="129" x="856" y="235.4452">Division_Maflow3D</text><line style="stroke:#181818;stroke-width:0.5;" x1="819" x2="1022" y1="243.3983" y2="243.3983"/><ellipse cx="829" cy="257.1424" fill="none" rx="3" ry="3" style="stroke:#038048;stroke-width:1.0;"/><text fill="#000000" font-family="sans-serif" font-size="14" lengthAdjust="spacing" textLength="167" x="838" y="260.9334">Impresi&#243;n_3D_Industrial</text><ellipse cx="829" cy="273.6307" fill="none" rx="3" ry="3" style="stroke:#038048;stroke-width:1.0;"/><text fill="#000000" font-family="sans-serif" font-size="14" lengthAdjust="spacing" textLength="136" x="838" y="277.4217">Prototipado_R&#225;pido</text><ellipse cx="829" cy="290.119" fill="none" rx="3" ry="3" style="stroke:#038048;stroke-width:1.0;"/><text fill="#000000" font-family="sans-serif" font-size="14" lengthAdjust="spacing" textLength="179" x="838" y="293.91">Fabricaci&#243;n_Series_Cortas</text><ellipse cx="829" cy="306.6073" fill="none" rx="3" ry="3" style="stroke:#038048;stroke-width:1.0;"/><text fill="#000000" font-family="sans-serif" font-size="14" lengthAdjust="spacing" textLength="137" x="838" y="310.3983">Control_Calidad_3D</text><ellipse cx="829" cy="323.0955" fill="none" rx="3" ry="3" style="stroke:#038048;stroke-width:1.0;"/><text fill="#000000" font-family="sans-serif" font-size="14" lengthAdjust="spacing" textLength="102" x="838" y="326.8866">I+D_Materiales</text></g><!--class Clientes_Automotive--><g id="elem_Clientes_Automotive"><rect codeLine="39" fill="#F1F1F1" height="67.4648" id="Clientes_Automotive" rx="2.5" ry="2.5" style="stroke:#181818;stroke-width:0.5;" width="155" x="7" y="410.33"/><text fill="#000000" font-family="sans-serif" font-size="14" lengthAdjust="spacing" textLength="141" x="14" y="428.8652">Clientes_Automotive</text><line style="stroke:#181818;stroke-width:0.5;" x1="8" x2="161" y1="436.8183" y2="436.8183"/><ellipse cx="18" cy="450.5624" fill="none" rx="3" ry="3" style="stroke:#038048;stroke-width:1.0;"/><text fill="#000000" font-family="sans-serif" font-size="14" lengthAdjust="spacing" textLength="129" x="27" y="454.3534">OEMs_Automoci&#243;n</text><ellipse cx="18" cy="467.0507" fill="none" rx="3" ry="3" style="stroke:#038048;stroke-width:1.0;"/><text fill="#000000" font-family="sans-serif" font-size="14" lengthAdjust="spacing" textLength="114" x="27" y="470.8417">Tier_1_Suppliers</text></g><!--class Clientes_Borygo--><g id="elem_Clientes_Borygo"><rect codeLine="44" fill="#F1F1F1" height="67.4648" id="Clientes_Borygo" rx="2.5" ry="2.5" style="stroke:#181818;stroke-width:0.5;" width="165" x="395" y="410.33"/><text fill="#000000" font-family="sans-serif" font-size="14" lengthAdjust="spacing" textLength="110" x="422.5" y="428.8652">Clientes_Borygo</text><line style="stroke:#181818;stroke-width:0.5;" x1="396" x2="559" y1="436.8183" y2="436.8183"/><ellipse cx="406" cy="450.5624" fill="none" rx="3" ry="3" style="stroke:#038048;stroke-width:1.0;"/><text fill="#000000" font-family="sans-serif" font-size="14" lengthAdjust="spacing" textLength="137" x="415" y="454.3534">Distribuidores_Auto</text><ellipse cx="406" cy="467.0507" fill="none" rx="3" ry="3" style="stroke:#038048;stroke-width:1.0;"/><text fill="#000000" font-family="sans-serif" font-size="14" lengthAdjust="spacing" textLength="139" x="415" y="470.8417">Comercio_Mayorista</text></g><!--class Clientes_3D--><g id="elem_Clientes_3D"><rect codeLine="49" fill="#F1F1F1" height="83.9531" id="Clientes_3D" rx="2.5" ry="2.5" style="stroke:#181818;stroke-width:0.5;" width="178" x="831.5" y="402.08"/><text fill="#000000" font-family="sans-serif" font-size="14" lengthAdjust="spacing" textLength="81" x="880" y="420.6152">Clientes_3D</text><line style="stroke:#181818;stroke-width:0.5;" x1="832.5" x2="1008.5" y1="428.5683" y2="428.5683"/><ellipse cx="842.5" cy="442.3124" fill="none" rx="3" ry="3" style="stroke:#038048;stroke-width:1.0;"/><text fill="#000000" font-family="sans-serif" font-size="14" lengthAdjust="spacing" textLength="152" x="851.5" y="446.1034">Industria_Automoci&#243;n</text><ellipse cx="842.5" cy="458.8007" fill="none" rx="3" ry="3" style="stroke:#038048;stroke-width:1.0;"/><text fill="#000000" font-family="sans-serif" font-size="14" lengthAdjust="spacing" textLength="151" x="851.5" y="462.5917">Fabricantes_Industrial</text><ellipse cx="842.5" cy="475.289" fill="none" rx="3" ry="3" style="stroke:#038048;stroke-width:1.0;"/><text fill="#000000" font-family="sans-serif" font-size="14" lengthAdjust="spacing" textLength="86" x="851.5" y="479.08">Centros_I+D</text></g><!--class Procesos_Automotive--><g id="elem_Procesos_Automotive"><rect codeLine="55" fill="#F1F1F1" height="100.4414" id="Procesos_Automotive" rx="2.5" ry="2.5" style="stroke:#181818;stroke-width:0.5;" width="163" x="197" y="393.84"/><text fill="#000000" font-family="sans-serif" font-size="14" lengthAdjust="spacing" textLength="147" x="205" y="412.3752">Procesos_Automotive</text><line style="stroke:#181818;stroke-width:0.5;" x1="198" x2="359" y1="420.3283" y2="420.3283"/><ellipse cx="208" cy="434.0724" fill="none" rx="3" ry="3" style="stroke:#038048;stroke-width:1.0;"/><text fill="#000000" font-family="sans-serif" font-size="14" lengthAdjust="spacing" textLength="137" x="217" y="437.8634">Conformado_Tubos</text><ellipse cx="208" cy="450.5607" fill="none" rx="3" ry="3" style="stroke:#038048;stroke-width:1.0;"/><text fill="#000000" font-family="sans-serif" font-size="14" lengthAdjust="spacing" textLength="70" x="217" y="454.3517">Soldadura</text><ellipse cx="208" cy="467.049" fill="none" rx="3" ry="3" style="stroke:#038048;stroke-width:1.0;"/><text fill="#000000" font-family="sans-serif" font-size="14" lengthAdjust="spacing" textLength="78" x="217" y="470.84">Ensamblaje</text><ellipse cx="208" cy="483.5373" fill="none" rx="3" ry="3" style="stroke:#038048;stroke-width:1.0;"/><text fill="#000000" font-family="sans-serif" font-size="14" lengthAdjust="spacing" textLength="111" x="217" y="487.3283">Control_Calidad</text></g><!--class Procesos_Borygo--><g id="elem_Procesos_Borygo"><rect codeLine="62" fill="#F1F1F1" height="100.4414" id="Procesos_Borygo" rx="2.5" ry="2.5" style="stroke:#181818;stroke-width:0.5;" width="201" x="595" y="393.84"/><text fill="#000000" font-family="sans-serif" font-size="14" lengthAdjust="spacing" textLength="116" x="637.5" y="412.3752">Procesos_Borygo</text><line style="stroke:#181818;stroke-width:0.5;" x1="596" x2="795" y1="420.3283" y2="420.3283"/><ellipse cx="606" cy="434.0724" fill="none" rx="3" ry="3" style="stroke:#038048;stroke-width:1.0;"/><text fill="#000000" font-family="sans-serif" font-size="14" lengthAdjust="spacing" textLength="149" x="615" y="437.8634">Formulaci&#243;n_Qu&#237;mica</text><ellipse cx="606" cy="450.5607" fill="none" rx="3" ry="3" style="stroke:#038048;stroke-width:1.0;"/><text fill="#000000" font-family="sans-serif" font-size="14" lengthAdjust="spacing" textLength="47" x="615" y="454.3517">Mezcla</text><ellipse cx="606" cy="467.049" fill="none" rx="3" ry="3" style="stroke:#038048;stroke-width:1.0;"/><text fill="#000000" font-family="sans-serif" font-size="14" lengthAdjust="spacing" textLength="65" x="615" y="470.84">Envasado</text><ellipse cx="606" cy="483.5373" fill="none" rx="3" ry="3" style="stroke:#038048;stroke-width:1.0;"/><text fill="#000000" font-family="sans-serif" font-size="14" lengthAdjust="spacing" textLength="175" x="615" y="487.3283">Control_Calidad_Qu&#237;mico</text></g><!--class Procesos_3D--><g id="elem_Procesos_3D"><rect codeLine="69" fill="#F1F1F1" height="83.9531" id="Procesos_3D" rx="2.5" ry="2.5" style="stroke:#181818;stroke-width:0.5;" width="201" x="1045" y="402.08"/><text fill="#000000" font-family="sans-serif" font-size="14" lengthAdjust="spacing" textLength="87" x="1102" y="420.6152">Procesos_3D</text><line style="stroke:#181818;stroke-width:0.5;" x1="1046" x2="1245" y1="428.5683" y2="428.5683"/><ellipse cx="1056" cy="442.3124" fill="none" rx="3" ry="3" style="stroke:#038048;stroke-width:1.0;"/><text fill="#000000" font-family="sans-serif" font-size="14" lengthAdjust="spacing" textLength="84" x="1065" y="446.1034">Dise&#241;o_CAD</text><ellipse cx="1056" cy="458.8007" fill="none" rx="3" ry="3" style="stroke:#038048;stroke-width:1.0;"/><text fill="#000000" font-family="sans-serif" font-size="14" lengthAdjust="spacing" textLength="175" x="1065" y="462.5917">Optimizaci&#243;n_Topol&#243;gica</text><ellipse cx="1056" cy="475.289" fill="none" rx="3" ry="3" style="stroke:#038048;stroke-width:1.0;"/><text fill="#000000" font-family="sans-serif" font-size="14" lengthAdjust="spacing" textLength="141" x="1065" y="479.08">Impresi&#243;n_Industrial</text></g><!--link Maflow_Spain to Division_Automotive--><g id="link_Maflow_Spain_Division_Automotive"><path codeLine="75" d="M525.24,129.05 C480.63,155.32 429.4903,185.4456 381.9203,213.4556 " fill="none" id="Maflow_Spain-to-Division_Automotive" style="stroke:#181818;stroke-width:1.0;"/><polygon fill="#181818" points="376.75,216.5,386.535,215.3803,381.0586,213.963,382.4759,208.4866,376.75,216.5" style="stroke:#181818;stroke-width:1.0;"/></g><!--link Maflow_Spain to Division_Borygo--><g id="link_Maflow_Spain_Division_Borygo"><path codeLine="76" d="M603.5,157.24 C603.5,176.89 603.5,191.81 603.5,210.45 " fill="none" id="Maflow_Spain-to-Division_Borygo" style="stroke:#181818;stroke-width:1.0;"/><polygon fill="#181818" points="603.5,216.45,607.5,207.45,603.5,211.45,599.5,207.45,603.5,216.45" style="stroke:#181818;stroke-width:1.0;"/></g><!--link Maflow_Spain to Division_Maflow3D--><g id="link_Maflow_Spain_Division_Maflow3D"><path codeLine="77" d="M681.86,130.27 C725.04,156.35 773.8436,185.8188 819.5236,213.3988 " fill="none" id="Maflow_Spain-to-Division_Maflow3D" style="stroke:#181818;stroke-width:1.0;"/><polygon fill="#181818" points="824.66,216.5,819.0228,208.424,820.3797,213.9157,814.8879,215.2725,824.66,216.5" style="stroke:#181818;stroke-width:1.0;"/></g><!--link Division_Automotive to Clientes_Automotive--><g id="link_Division_Automotive_Clientes_Automotive"><path codeLine="79" d="M211.19,334.2 C181.75,359.5 152.8308,384.3497 127.6808,405.9597 " fill="none" id="Division_Automotive-to-Clientes_Automotive" style="stroke:#181818;stroke-width:1.0;"/><polygon fill="#181818" points="123.13,409.87,132.5631,407.0385,126.9223,406.6115,127.3494,400.9707,123.13,409.87" style="stroke:#181818;stroke-width:1.0;"/></g><!--link Division_Automotive to Procesos_Automotive--><g id="link_Division_Automotive_Procesos_Automotive"><path codeLine="80" d="M278.5,334.2 C278.5,353.48 278.5,368.77 278.5,387.37 " fill="none" id="Division_Automotive-to-Procesos_Automotive" style="stroke:#181818;stroke-width:1.0;"/><polygon fill="#181818" points="278.5,393.37,282.5,384.37,278.5,388.37,274.5,384.37,278.5,393.37" style="stroke:#181818;stroke-width:1.0;"/></g><!--link Division_Borygo to Clientes_Borygo--><g id="link_Division_Borygo_Clientes_Borygo"><path codeLine="82" d="M559.78,334.2 C540.59,359.59 522.378,383.6936 506.028,405.3236 " fill="none" id="Division_Borygo-to-Clientes_Borygo" style="stroke:#181818;stroke-width:1.0;"/><polygon fill="#181818" points="502.41,410.11,511.028,405.3424,505.425,406.1213,504.6461,400.5183,502.41,410.11" style="stroke:#181818;stroke-width:1.0;"/></g><!--link Division_Borygo to Procesos_Borygo--><g id="link_Division_Borygo_Procesos_Borygo"><path codeLine="83" d="M635.42,334.2 C646.06,353.48 654.9098,369.5175 665.1798,388.1175 " fill="none" id="Division_Borygo-to-Procesos_Borygo" style="stroke:#181818;stroke-width:1.0;"/><polygon fill="#181818" points="668.08,393.37,667.2314,383.5578,665.6632,388.9929,660.228,387.4247,668.08,393.37" style="stroke:#181818;stroke-width:1.0;"/></g><!--link Division_Maflow3D to Clientes_3D--><g id="link_Division_Maflow3D_Clientes_3D"><path codeLine="85" d="M920.5,334.2 C920.5,356.4 920.5,375.26 920.5,395.61 " fill="none" id="Division_Maflow3D-to-Clientes_3D" style="stroke:#181818;stroke-width:1.0;"/><polygon fill="#181818" points="920.5,401.61,924.5,392.61,920.5,396.61,916.5,392.61,920.5,401.61" style="stroke:#181818;stroke-width:1.0;"/></g><!--link Division_Maflow3D to Procesos_3D--><g id="link_Division_Maflow3D_Procesos_3D"><path codeLine="86" d="M998.56,334.2 C1028.52,356.4 1057.2588,377.6884 1084.7288,398.0384 " fill="none" id="Division_Maflow3D-to-Procesos_3D" style="stroke:#181818;stroke-width:1.0;"/><polygon fill="#181818" points="1089.55,401.61,1084.6993,393.0385,1085.5323,398.6337,1079.9372,399.4668,1089.55,401.61" style="stroke:#181818;stroke-width:1.0;"/></g><!--SRC=[ZLH1Rjim4Bpx5RuREGGk2kHImBNYn4MCjBRl0YsjbMr9BajIBfoYZ-a3V2Zo17sib4HNbAmerKtSvSxip7AVC8LnWZhXO4PFvGy8POzZ0M87sen6O_Sbd1apNh4zfn_nHZ6KuvzLeFmc4Mf84YnUP7m74ZJZJUmEZAqY2vHC9kYYJN2zlhzl_bPCVmEBCckEbZ83wUuKf-3M0sN5oLLDWhCvuvYoj6RxAoGTuG4DaendkIL15WyGSj_cEpBnRDuzMSDUO-ROLdq5G2GKIP0Mt2sU2vH8OLHQJJpsTEBbRBkuVd_pxgP9-QmfpRrQdvRR0S8VIHyp2ia-5AVlEQOXlP98a8128LDCivr6mqmNrhgh4LY6l2Lpb_QNl3W9J2Yqs5YDkxpclQvA352l9sKQXUINGcamrVrf52zbcfSbmrbn7AqpIB6KudNnMxbEc-2YR2cfxOWteD4PC2TjmoQxVKoZ07uIELeMIaWlMOlxdADtjNTE7czNvr1d8hPkFkFhU9ChvKheeTANZfvrTQrgZzsQDT09akDz9EUdPGErEsAVvUtdxCMiBlOvCOTII1URH9UGpgO43Bscb3DXJrgK9bPFgObiY3jNyd03t4h3n8wph_2gYmC4BlLSEEIS-odnOnp0hU3PbGZX3yombFxpAVIpQ2ll78NY3yNpMJ1yZygYm6VFQqkAUF6IjQW5pwFZY4TjRT-hgmzzc-sDn5glDvBERxT6xLkVPNhFSndCxncQ3e0tirKy8DoNrnc4Ji5_IwXLqk-4_gp0qxy0]--></g></svg>